<?xml version="1.0" encoding="UTF-8"?>
<svg id="Layer_1" data-name="Layer 1" xmlns="http://www.w3.org/2000/svg" version="1.1" viewBox="0 0 200 300">
  <g id="diagram">
    <path d="M75.9,117.6c4.6,7.4,11.1,12.6,18.5,16.3.6,8.5-.3,16.6-2.7,24.2-1.8,5.7-1.5,11.2-1.3,16.8.2,5-1,9.7-1.9,14.5-.5,2.6-2.7,4.3-3.1,7.1-.5,3.6.9,6.7,1.6,10,1.2,5.9.8,11.7-1.6,17.1-2.7,6-3,12.4-2.6,18.6.2,3.2.9,6.4,1,9.7.2,6-3.1,9.1-8,11.1-.8.3-1.2.8-1.8,1.2-4.7,2.7-8.4,1.9-12.7-2.7,1.7-6.6,8.9-8.3,12.5-13.9,1-2.6.5-6,1.8-9.1" fill="none" stroke="#000" stroke-linecap="round" stroke-linejoin="round" stroke-width="2"/>
    <path d="M116.4,117.6c-4,5.3-8.1,10.4-14.5,13.1-1.6.7-2.8,2.4-3.6,3.2-.6,9,.6,17.1,2.7,24.9,1.3,4.7,1.7,9.1,1.3,13.8-.4,6.2.3,12.3,2.5,18.2.8,2.2,2,4.2,2.4,6.7.5,3.2-1.1,5.7-1.5,8.6-.8,6.2-.7,12,1.6,17.9,2.6,6.9,3.4,14.1,1.4,21.6-1.1,4.2-.1,8.8,1.4,12.9,1,2.6,4.3,3,6.6,4.4.6.4,1.2.8,1.8,1.2,4.7,2.7,8.4,1.9,12.9-2.8-1.8-6.5-9.2-8-12.7-14-.8-2.3-.4-5.7-1.7-8.8" fill="none" stroke="#000" stroke-linecap="round" stroke-linejoin="round" stroke-width="2"/>
    <path d="M131.7,73.7c.9-4.3.7-8.6-.8-12.6-1.9-5-6.7-6.8-11.5-7.7-5-.9-9-3.5-13.2-5.2-2-5.4.3-9.5,2.5-13.5.9-1.7,2.3-3.1,2.2-5.7-.2-1.2-2-1.8-2.6-2.9,0-9.1-4.6-14.5-11.9-14.5-7.4,0-11.9,5.3-11.9,13.8-.7,1.2-2.5,1.6-2.8,4,1.9,3.9,4.3,8.3,6.1,13" fill="none" stroke="#000" stroke-linecap="round" stroke-linejoin="round" stroke-width="2"/>
    <path d="M107.1,89.3c-4.8-1.9-9.7-3.5-14.9-2.2-3.1.8-6.7,1.1-8.2,4.8-.2.4-.4.8-.7,1.1-7.1,6.8-9.3,13.6-7.4,23.5-3.6,4.4-4.3,10-5.5,15.2-2.3,10.8-3.7,21.8-.5,32.7.7,2.4.8,5.1,2.6,7.1" fill="none" stroke="#000" stroke-linecap="round" stroke-linejoin="round" stroke-width="2"/>
    <path d="M117.9,117.9c2.9,5.5,3.9,11.6,5.2,17.5,2.5,11.6,2,23.2-1.8,34.6-.2.7-.8,1-1.1,1.5" fill="none" stroke="#000" stroke-linecap="round" stroke-linejoin="round" stroke-width="2"/>
    <path d="M115.7,120.9c1.1,1.1.7,2.4.7,3.7,0,8.8,1.1,17.4,2.2,26,0,.6,0,1.2,0,1.9,0,11.8.3,23.6-.4,35.3,0,.9.1,1.9-.8,2.6" fill="none" stroke="#000" stroke-linecap="round" stroke-linejoin="round" stroke-width="2"/>
    <path d="M77,121.7c-1,1-.8,2.2-.7,3.3.4,8.9-1.4,17.6-2,26.4-.4,5.7.1,11.4-.3,17.1-.6,7.3.8,14.4,1.1,21.6.1,3.1-2.2,5.6-2.9,8.6-1.8,7.5-2.4,15-.8,22.7,1,5.2,1.5,10.6,4.2,15.2,1.5,2.6,2.8,5.8,6.6,6" fill="none" stroke="#000" stroke-linecap="round" stroke-linejoin="round" stroke-width="2"/>
    <path d="M113.5,122.4c1.7,3.2-.5,6-1.2,8.9-1.7,7.3-3.9,14.4-5.8,21.6-1.5,5.8.2,11.4.8,17.1.6,5.3,2.6,10.4,4.7,15.3.5,1.1,1.3,2.5,2,2.8,7.1,4.3,7.1,11.7,8,18.4,1.3,10.4-.3,20.6-4.8,30-1.3,2.7-2.5,6.6-6.9,6.4" fill="none" stroke="#000" stroke-linecap="round" stroke-linejoin="round" stroke-width="2"/>
    <path d="M78.9,122.4c-.8,3.2.9,6,1.6,8.9,2,9.2,5.9,18,6.2,27.6.2,5.2-1.3,10.2-2.2,15.3-.6,3.2-1.4,6.2-3.3,9-3.1,4.5-2.7,9.8-3,14.8-.4,7,.6,13.9,1,20.8.2,3.5.1,6.9,0,10.4-.1,2.9,1,5.7,1.1,8.6,0,1.2.7,1.6,1.9,1.5" fill="none" stroke="#000" stroke-linecap="round" stroke-linejoin="round" stroke-width="2"/>
    <path d="M64,109c.9,3.7-1.5,6.5-2.7,9.6-1.8,4.8-4.2,9.4-6.8,13.6,1.4,10-6,14.6-11.1,20.1h-5.3c-1.6-3-3.1-6.2,0-9.5,1.1-1.2.7-3.2,2.2-4.1" fill="none" stroke="#000" stroke-linecap="round" stroke-linejoin="round" stroke-width="2"/>
    <path d="M122.4,71.1c-2.7,2-1.7,5.1-1.3,7.4.7,4.8.5,9.9,3.7,14.4-2.3,3.7,0,7.3,1,10.9,2.9,10,6.8,19.6,12.6,28.6-2.9,6.7,2.1,10.9,6,15.3,1.1,1.3,2.6,2.3,3.7,3.8,1,1.5,2.3,1.4,3.7.7" fill="none" stroke="#000" stroke-linecap="round" stroke-linejoin="round" stroke-width="2"/>
    <path d="M57.3,91.9c-5.2,4.7-6.5,11-7,17.5-.4,5.3-2.9,10-3.5,15.2,0,.8-.8,1.8-1.5,2.2-4.5,2.6-6.8,7.7-11.6,9.6.6,3.8,3.8,2,5.3,3.3" fill="none" stroke="#000" stroke-linecap="round" stroke-linejoin="round" stroke-width="2"/>
    <path d="M135.8,91.9c3.8,4.5,5.8,9.9,6.2,15.6.4,4.5,1.3,8.8,2.8,13,.4,1.3.6,2.5.7,3.7" fill="none" stroke="#000" stroke-linecap="round" stroke-linejoin="round" stroke-width="2"/>
    <path d="M115.3,74.8c2.4.2,2.1,2.4,2.1,3.7.2,5.4,0,10.9.2,16.4.1,2.7-.9,4.7-2.4,6.6,2.3,4.8,2.4,9.7,1.6,14.6-.2,1.1.5,1.1,1.1,1.3" fill="none" stroke="#000" stroke-linecap="round" stroke-linejoin="round" stroke-width="2"/>
    <path d="M96,109.7c.9-5.2.2-10.4.3-15.6.2-9.3,0-18.6,0-27.9v-19c-2.3-2.7-5.1-3.6-7.5-5.3-2.3,1.2-2.1,3.3-2.2,5.6-4.8,2.4-9.6,5-15.2,6.3-5.7,1.2-10.5,5.4-11.1,13.6-.2,2.1-.5,4.3.3,6.3" fill="none" stroke="#000" stroke-linecap="round" stroke-linejoin="round" stroke-width="2"/>
    <path d="M114.2,189.4c-.5,2.4.3,4.7.3,7.1,0,5.6-.2,11.2-.4,16.7,0,.6-.6,1.2-.9,1.9" fill="none" stroke="#000" stroke-linecap="round" stroke-linejoin="round" stroke-width="2"/>
    <path d="M96.3,110.5v23.1" fill="none" stroke="#000" stroke-linecap="round" stroke-linejoin="round" stroke-width="2"/>
    <path d="M108.6,200.9c1.8,2,1.4,4.7,2.2,7.1,3.2,9.8,3.9,19.7,1.1,29.8" fill="none" stroke="#000" stroke-linecap="round" stroke-linejoin="round" stroke-width="2"/>
    <path d="M109,93.4c-.7,2-.3,4-.4,6,0,1,.2,2.1,0,3-2.6,8.8-1,18.6-6.3,26.8-.2.3,0,.7,0,1.1" fill="none" stroke="#000" stroke-linecap="round" stroke-linejoin="round" stroke-width="2"/>
    <path d="M114.2,102.7c-1.2,2.4-3.3,3.9-4.9,5.7-4.5-.8-8.2,1-12.2,1.6-4,.7-8-3.2-12.2-1.1.9,6.2,1.4,11.9,3.9,17.2.7,1.5,2.2,2.9,1.6,4.8" fill="none" stroke="#000" stroke-linecap="round" stroke-linejoin="round" stroke-width="2"/>
    <path d="M73.3,69.2c-4.1,1.5-8.3,2.7-12.2,4.5-4.4,2.1-7.1,12.7-4,17,3.9,5.4,3.1,10.8,1.4,16.4-1.8,5.7-4.4,11-8.2,15.6-.7.8-1.5,1.4-2.6,1.1" fill="none" stroke="#000" stroke-linecap="round" stroke-linejoin="round" stroke-width="2"/>
    <path d="M118.7,68.5c3.4,2.7,7.9,2.9,11.6,5.1,6.2,3.6,8.4,13.1,4.1,18.7-2.8,3.7-1.8,8.2-1,12.2.7,3.2,2.4,6.3,3.4,9.4,1.7,5.5,3.1,11.2,1.3,17.1" fill="none" stroke="#000" stroke-linecap="round" stroke-linejoin="round" stroke-width="2"/>
    <path d="M84.1,200.9c-2.3,3.6-1.9,8-3.3,11.9-.3.8-.4,1.7-1.2,2.2" fill="none" stroke="#000" stroke-linecap="round" stroke-linejoin="round" stroke-width="2"/>
    <path d="M71.4,87.4c2.5-.3,2.3,2,2.9,3.4.7,1.6.3,3.5.5,5.2.2,1.6-.4,3.8,2,4.5" fill="none" stroke="#000" stroke-linecap="round" stroke-linejoin="round" stroke-width="2"/>
    <path d="M138.4,117.9c.1,0,.3,0,.4,0,5.7,7.4,14.2,12.1,20,19.5-1,2.7-3.6,1.5-5.5,2-1.5.4-1.5-1.1-1.5-2.2" fill="none" stroke="#000" stroke-linecap="round" stroke-linejoin="round" stroke-width="2"/>
    <path d="M71.4,73.3c1.3,4.6-1.5,9.1-.6,14-1.4,1.4-1.7,3.7-2.8,5.5.9,3.2-.9,13.6-2.9,17.7" fill="none" stroke="#000" stroke-linecap="round" stroke-linejoin="round" stroke-width="2"/>
    <path d="M54.3,117.9c.4,3.3-.3,6.5-.8,9.7-.2,1.4-.5,2.6.4,3.7" fill="none" stroke="#000" stroke-linecap="round" stroke-linejoin="round" stroke-width="2"/>
    <path d="M105.7,78.9c.8-.3,1.3-1,2.2-1.2,4.1-.7,7.2-3.2,10.4-6.3.7-5.5-4.9-9.1-5.2-14.6-2.2-1.7-4.6-2.4-7.4-1.1-6.8,2.9-13.6,1.6-20.4,0-3.8-.9-5-.6-6.3,3-1.4,3.9-3.8,7.3-5.5,10.9,3,5.8,8.3,7.3,13.7,8.8" fill="none" stroke="#000" stroke-linecap="round" stroke-linejoin="round" stroke-width="2"/>
    <path d="M77,74.8c-2.1.3-1.9,1.9-1.9,3.3,0,2.7.2,5.3-1.1,7.8" fill="none" stroke="#000" stroke-linecap="round" stroke-linejoin="round" stroke-width="2"/>
    <path d="M109.7,181.2c-1.8,1.9-1.5,4.4-1.8,6.7-.2,1.6-.3,3.1-1.2,4.5" fill="none" stroke="#000" stroke-linecap="round" stroke-linejoin="round" stroke-width="2"/>
    <path d="M83,181.2c2.1,1.8,1.4,4.4,1.8,6.7.2,1.6.1,3.1,1.2,4.5" fill="none" stroke="#000" stroke-linecap="round" stroke-linejoin="round" stroke-width="2"/>
    <path d="M107.9,98.6c-6.9-3.5-14-2.7-21.2-1-.6.1-1.3.2-1.9.3" fill="none" stroke="#000" stroke-linecap="round" stroke-linejoin="round" stroke-width="2"/>
    <path d="M115,99c-1.6-2.7-3.5-4.9-6.4-6.4-.7-3.4-1.5-6.9-2.2-10.4-.4-2.4-1.4-3.5-4-4.7-4.8-2.3-8.8-1.8-13.2.2-.8.3-2,.4-2.1,1.2-.9,3.4-2.9,6.7-1.5,10.4" fill="none" stroke="#000" stroke-linecap="round" stroke-linejoin="round" stroke-width="2"/>
    <path d="M67.7,92.6c-3,1.5-3.6,5-6,7.1-.5.4-.4,1.5-1.5,1.1" fill="none" stroke="#000" stroke-linecap="round" stroke-linejoin="round" stroke-width="2"/>
    <path d="M125,93.4c3.4,1.9,4.6,5.5,7.1,8.2" fill="none" stroke="#000" stroke-linecap="round" stroke-linejoin="round" stroke-width="2"/>
    <path d="M149.2,139.9c1.9,3,2.8,6.7,6,8.9" fill="none" stroke="#000" stroke-linecap="round" stroke-linejoin="round" stroke-width="2"/>
    <path d="M147.7,142.5c1.2,3.5,3.5,6.6,4.5,10,4.7.4,1.8-4.6,4.5-5.2-.6-2.9-3.4-4.5-3-7.4" fill="none" stroke="#000" stroke-linecap="round" stroke-linejoin="round" stroke-width="2"/>
    <path d="M45,142.9c-1.6,2.9-3.5,5.6-4.1,8.9" fill="none" stroke="#000" stroke-linecap="round" stroke-linejoin="round" stroke-width="2"/>
    <path d="M86.7,48c1.6,3.1,5.1,4.9,6,8.6" fill="none" stroke="#000" stroke-linecap="round" stroke-linejoin="round" stroke-width="2"/>
    <path d="M104.5,42.4c-3.5-.3-5.6,2.5-8.2,4.1" fill="none" stroke="#000" stroke-linecap="round" stroke-linejoin="round" stroke-width="2"/>
    <path d="M42.8,140.6c-1.6,2.8-2.5,6-5.2,8.2" fill="none" stroke="#000" stroke-linecap="round" stroke-linejoin="round" stroke-width="2"/>
    <path d="M105.3,48.4c-1.7,2.9-4.7,4.8-5.6,8.2" fill="none" stroke="#000" stroke-linecap="round" stroke-linejoin="round" stroke-width="2"/>
    <path d="M77.7,102.7c2.6,1.8,3.9,5.2,7.1,6.3" fill="none" stroke="#000" stroke-linecap="round" stroke-linejoin="round" stroke-width="2"/>
    <path d="M83.7,93.4c.8,1.4.8,3.3.6,4.4-.9,3.8.3,6.9,2,10.1" fill="none" stroke="#000" stroke-linecap="round" stroke-linejoin="round" stroke-width="2"/>
    <path d="M46.5,144.7v4.1" fill="none" stroke="#000" stroke-linecap="round" stroke-linejoin="round" stroke-width="2"/>
    <path d="M119.4,88.9c-1,1.1.2,2.6-.7,3.7" fill="none" stroke="#000" stroke-linecap="round" stroke-linejoin="round" stroke-width="2"/>
    <path d="M83.7,35.8" fill="none" stroke="#000" stroke-linecap="round" stroke-linejoin="round" stroke-width="2"/>
  </g>
  <path id="head" d="M72.2,28.4c-1.8-9.2,4.2-16.7,5.4-18.2,5.6-6.6,14.6-9.9,23.3-8.5,1.2.2,13.4,2.4,18.4,13.3.8,1.7,4.3,10.1,0,17.7-2.5,4.4-6.4,6.4-7.5,7-3.6,1.8-5.8,1.4-19.2.7-10.6-.5-12.6-.4-15.1-2.4-4-3.1-5-7.9-5.3-9.5Z" fill="none" stroke="#000" stroke-linecap="round" stroke-linejoin="round" stroke-width="2"/>
  <path id="neck" d="M83.3,45.9c-.9,2-.3,4.6-.2,5.1.9,3.7,3.8,5.6,4.8,6.3,4.1,2.8,9.8,3.1,14.3.9,1.1-.6,4.8-2.5,6.1-6.6.2-.7,1.1-3.5,0-5.8-3.2-6.6-22-6.3-25,.2Z" fill="none" stroke="#000" stroke-linecap="round" stroke-linejoin="round" stroke-width="2"/>
  <path id="right-shoulder" d="M113.4,45.6c1.5-.9,6.1-3.3,12.1-2.4.8.1,9.5,1.6,13.6,9.7.5.9,4.3,8.9.3,15-4.8,7.4-18.1,7.7-24.5,1.9-4-3.6-5-9.3-5.3-10.9-.3-1.8-.7-4.3.2-7.3.9-3,2.6-5,3.6-6Z" fill="none" stroke="#000" stroke-linecap="round" stroke-linejoin="round" stroke-width="2"/>
  <path id="left-shoulder" d="M80.3,71.3c-1.5.9-6.1,3.3-12.1,2.4-.8-.1-9.5-1.6-13.6-9.7-.5-.9-4.3-8.9-.3-15,4.8-7.4,18.1-7.7,24.5-1.9,4,3.6,5,9.3,5.3,10.9.3,1.8.7,4.3-.2,7.3-.9,3-2.6,5-3.6,6Z" fill="none" stroke="#000" stroke-linecap="round" stroke-linejoin="round" stroke-width="2"/>
  <path id="chest" d="M86.2,63.5c2-1.8,4.1-2.2,8.2-2.9,5.3-.9,9.7-1.7,13.1.9,1.9,1.4,2.7,3.3,3.9,6.3,1.6,3.9,3.1,7.6,1.7,10.2-1.7,3.2-7.7,2.9-19.6,2.4-6.5-.3-9.6-1-10.8-3.2-.8-1.3-.6-2.8-.4-4.8.2-1.5.6-5.9,3.9-8.9Z" fill="none" stroke="#000" stroke-linecap="round" stroke-linejoin="round" stroke-width="2"/>
  <path id="right-arm" d="M119.2,78.8c1.2-1.4,2.6-2,5.6-3.1,3.2-1.2,8.7-3.2,13.1-1.4,1.8.7,3.8,2.2,7.7,11.7,5.4,13.3,8.2,19.9,5.1,25.7-1,1.9-1.2.9-8.2,7.5-7.1,6.7-8.8,9.5-11.4,9.2-.9-.1-2.8-.7-5.8-7.5-4-9.1-2.6-12.9-5.1-25.7-1.8-9-3.7-13.2-1-16.5Z" fill="none" stroke="#000" stroke-linecap="round" stroke-linejoin="round" stroke-width="2"/>
  <path id="left-arm" d="M50.4,81.9c.6-2,1.7-5.4,4.8-7.3,4.2-2.6,10.8-1.9,14.5,1.7,1.9,1.9,2.6,4.1,3.1,5.8,2.9,11.1,0,22.3-1.7,27.7-3.5,11.5-5.7,18.5-11.2,19.9-5.2,1.3-11.9-2.6-12.9-3.2-1.3-.7-3.4-2-4.9-3.9-4.5-5.6-.5-12.3,8.5-40.7Z" fill="none" stroke="#000" stroke-linecap="round" stroke-linejoin="round" stroke-width="2"/>
  <path id="admon" d="M76.8,88.7c3.8-4.5,8.7-5.9,12.1-7,3.1-1,12.2-3.7,20.3,1.2,1,.6,3.8,2.4,6,5.8,4,6,.2,10.9,0,24.9-.1,9.5,1.4,10.3-.2,13.1-4.3,7.7-20.5,10.4-31,3.6-7.1-4.7-9.3-12.3-10.4-16.2-.8-3-4.6-16.2,3.2-25.4Z" fill="none" stroke="#000" stroke-linecap="round" stroke-linejoin="round" stroke-width="2"/>
  <path id="left-upper-leg" d="M69.9,171.4c.7.4,4.2,1.6,11.2,3.9,2.3.8,4,1.3,6.1.9,3-.6,4.8-2.9,5.8-4.1,5.8-7.3,9.8-24.9,1.6-33.5-2-2.1-4.7-3.7-4.8-3.8-4.5-2.7-6.2-1.6-11.9-4.4-1.7-.9-9.2-5.1-6.4-3.6h0s-4.5,3.7-5.5,4.6c-5.4,4.9-4.9,15.1-4.8,18.6.2,4.5.8,16.4,8.7,21.4Z" fill="none" stroke="#000" stroke-linecap="round" stroke-linejoin="round" stroke-width="2"/>
  <path id="right-upper-leg" d="M122.4,177.9c7.2-3.7,8.8-11.9,10.2-19.2,2.3-11.6-.9-20.4-2.7-25.2-1.8-4.8-3.7-9.7-6.8-10-4.1-.4-5.4,7.3-13.6,10.4-5,1.8-7.3,0-9.2,2.2-2.9,3.2.9,8.8,1.5,17.7.6,8.4-4.5,11-2.4,16.5,1.5,4.1,5,6.2,6.3,7,5.1,3.1,11.8,3.2,16.7.7Z" fill="none" stroke="#000" stroke-linecap="round" stroke-linejoin="round" stroke-width="2"/>
  <path id="right-hand" d="M154.4,154.9c5.5-1.6,8.9-6.9,10-11.4,2.7-10.4-6.6-18.7-7.1-19.2-1.7-1.5-4.8-4.2-9.4-4.4-7.1-.4-14,5.6-15.8,12.3-2.9,10.9,8.3,21.9,17,23.1,2.7.4,4.8-.2,5.3-.3Z" fill="none" stroke="#000" stroke-linecap="round" stroke-linejoin="round" stroke-width="2"/>
  <path id="left-hand" d="M44.1,158c3.3-1.3,12.5-5.1,13.6-12.9.9-6.1-3.6-11.1-6.3-14.1-2.6-2.9-7.1-8-14.5-8.3-6.2-.3-12.5,2.8-15.8,7.8-6.6,9.9-.5,25.8,9,29.3,5.2,1.9,10.4-.3,14-1.7Z" fill="none" stroke="#000" stroke-linecap="round" stroke-linejoin="round" stroke-width="2"/>
  <path id="left-knee" d="M99.6,182.8c1.4-1.5,2.5-1,13.3-2,8.6-.8,11-1.5,13.1.3,1.9,1.7,2.3,4.3,2.7,7.1.2,1.5.9,6.1-.9,9.4-3.7,7-18.9,9.7-26,2.4-4.6-4.7-5.8-13.5-2.2-17.2Z" fill="none" stroke="#000" stroke-linecap="round" stroke-linejoin="round" stroke-width="2"/>
  <path id="right-knee" d="M63.9,184c3.2-5.3,9.4-6.3,13.6-7,6.6-1,12.1.6,15.3,1.9,4.1,7,3.6,15.4-1,20.3-5.5,5.9-14.5,4.1-17.2,3.6-3.2-.6-8.6-1.7-11.2-6.6-2.1-4-1.4-8.8.5-12.1Z" fill="none" stroke="#000" stroke-linecap="round" stroke-linejoin="round" stroke-width="2"/>
  <path id="left-lower-leg" d="M122.3,240.2c6.1-3.1,6.8-10.8,7.5-19.2.4-4.6,1.2-14-3.1-16.2-3.6-1.8-7,3.7-14.5,2.9-6-.6-8.5-4.7-10.4-3.4-2.2,1.5,1.1,6.9,1.2,17.7,0,7.7-1.6,9.1,0,12.3,2.9,5.7,12.6,9.3,19.2,6Z" fill="none" stroke="#000" stroke-linecap="round" stroke-linejoin="round" stroke-width="2"/>
  <path id="right-lower-leg" d="M64.9,211.1c3-4.4,7.9-5.6,9.4-6,2.8-1.2,11.4-4.7,15.5-1,2.3,2.1,1.4,4.9,1.4,18.9,0,10.7.6,12.4-1.2,14.6-3.7,4.7-12.8,5.3-18.9,1.9-9.5-5.3-8.6-18.4-8.5-20.4.1-2.1.4-5,2.4-8Z" fill="none" stroke="#000" stroke-linecap="round" stroke-linejoin="round" stroke-width="2"/>
  <path id="right-foot" d="M123.8,273.7c10.6,0,23.1-7.1,23.1-15.1,0-8.4-13.4-13.9-17.2-15.5-3.7-1.5-18.5-7.6-26.6.2-4.8,4.7-4.3,11.7-4.3,12.1,1,10.5,13.7,18.4,24.9,18.4Z" fill="none" stroke="#000" stroke-linecap="round" stroke-linejoin="round" stroke-width="2"/>
  <path id="left-leg" d="M53.3,247.7c2.8-3.7,9.7-4,23.7-4.4,10.9-.4,12.9.9,13.8,1.7,5.8,4.8,5.6,17.8-1.2,25.7-6,7.1-16.5,9.2-24.7,5.6-12.1-5.2-16.6-21.8-11.6-28.6Z" fill="none" stroke="#000" stroke-linecap="round" stroke-linejoin="round" stroke-width="2"/>
</svg>